<?xml version="1.0" ?>
<!-- Uploaded to: SVG Repo, www.svgrepo.com, Generator: SVG Repo Mixer Tools -->
<svg width="800px" height="800px" viewBox="0 0 32 32" xmlns="http://www.w3.org/2000/svg">
<title/>
<g data-name="filled line" id="filled_line">
<path d="M16,2a1,1,0,0,0-1,1V9a1,1,0,0,0,2,0V3A1,1,0,0,0,16,2Z" style="fill:#2b2a2a"/>
<path d="M27,8H23.62a1,1,0,0,0-1,1v2h-.54V9a1,1,0,0,0-1-1H10.92a1,1,0,0,0-1,1v2H9.38V9a1,1,0,0,0-1-1H5A1,1,0,0,0,4,9v7a1,1,0,0,0,1,1H6v2a1,1,0,0,0,1,1h3a1,1,0,0,0,1-1V17h1v2a1,1,0,0,0,1,1h6a1,1,0,0,0,1-1V17h1v2a1,1,0,0,0,1,1h3a1,1,0,0,0,1-1V17h1a1,1,0,0,0,1-1V9A1,1,0,0,0,27,8Z" style="fill:#246eb9"/>
<path d="M30,16V29a1.0029,1.0029,0,0,1-1,1H3a1.0029,1.0029,0,0,1-1-1V16a1.0029,1.0029,0,0,1,1-1H7a1.0029,1.0029,0,0,1,1,1v2H9V16a1.0029,1.0029,0,0,1,1-1h3a1.0029,1.0029,0,0,1,1,1v2h4V16a1.0029,1.0029,0,0,1,1-1h3a1.0029,1.0029,0,0,1,1,1v2h1V16a1.0029,1.0029,0,0,1,1-1h4A1.0029,1.0029,0,0,1,30,16Z" style="fill:#2380cc"/>
<path d="M20,23v7H12V23a1.0029,1.0029,0,0,1,1-1h6A1.0029,1.0029,0,0,1,20,23Z" style="fill:#eeeced"/>
<rect height="5" rx="1" ry="1" style="fill:#eeeced" width="5" x="21" y="22"/>
<rect height="5" rx="1" ry="1" style="fill:#eeeced" width="5" x="6" y="22"/>
<path d="M21,2H16a1,1,0,0,0-1,1V7h6a1,1,0,0,0,1-1V3A1,1,0,0,0,21,2Z" style="fill:#d32344"/>
<path d="M29,15H28V9a1,1,0,0,0-1-1H23.62a1,1,0,0,0-1,1v2h-.54V9a1,1,0,0,0-1-1H17V7h4a1,1,0,0,0,1-1V3a1,1,0,0,0-1-1H16a1,1,0,0,0-1,1V8H10.92a1,1,0,0,0-1,1v2H9.38V9a1,1,0,0,0-1-1H5A1,1,0,0,0,4,9v6H3a1,1,0,0,0-1,1V29a1,1,0,0,0,1,1H29a1,1,0,0,0,1-1V16A1,1,0,0,0,29,15ZM20,5H17V4h3ZM6,10H7.38v2a1,1,0,0,0,1,1h2.54a1,1,0,0,0,1-1V10h8.16v2a1,1,0,0,0,1,1h2.54a1,1,0,0,0,1-1V10H26v5H25a1,1,0,0,0-1,1v2H23V16a1,1,0,0,0-1-1H19a1,1,0,0,0-1,1v2H14V16a1,1,0,0,0-1-1H10a1,1,0,0,0-1,1v2H8V16a1,1,0,0,0-1-1H6Zm8,18V24h4v4Zm14,0H20V23a1,1,0,0,0-1-1H13a1,1,0,0,0-1,1v5H4V17H6v2a1,1,0,0,0,1,1h3a1,1,0,0,0,1-1V17h1v2a1,1,0,0,0,1,1h6a1,1,0,0,0,1-1V17h1v2a1,1,0,0,0,1,1h3a1,1,0,0,0,1-1V17h2Z"/>
<path d="M25,22H22a1,1,0,0,0-1,1v3a1,1,0,0,0,1,1h3a1,1,0,0,0,1-1V23A1,1,0,0,0,25,22Zm-1,3H23V24h1Z"/>
<path d="M10,22H7a1,1,0,0,0-1,1v3a1,1,0,0,0,1,1h3a1,1,0,0,0,1-1V23A1,1,0,0,0,10,22ZM9,25H8V24H9Z"/>
</g>
</svg>