<?xml version="1.0" encoding="iso-8859-1"?>
<!-- Uploaded to: SVG Repo, www.svgrepo.com, Generator: SVG Repo Mixer Tools -->
<svg version="1.1" id="Layer_1" xmlns="http://www.w3.org/2000/svg" xmlns:xlink="http://www.w3.org/1999/xlink" 
	 viewBox="0 0 512 512" xml:space="preserve">
<polygon points="232.989,109.303 232.989,74.787 204.225,74.787 204.225,63.281 221.483,63.281 221.483,28.764 204.225,28.764 
	204.225,0 169.708,0 169.708,28.764 152.449,28.764 152.449,63.281 169.708,63.281 169.708,74.787 140.944,74.787 140.944,109.303 
	169.708,109.303 169.708,120.809 152.449,120.809 152.449,155.326 169.708,155.326 169.708,299.146 204.225,299.146 
	204.225,155.326 221.483,155.326 221.483,120.809 204.225,120.809 204.225,109.303 "/>
<rect x="273.258" y="254.274" style="fill:#FFE98F;" width="103.551" height="43.146"/>
<rect x="325.034" y="254.274" style="fill:#FFC170;" width="51.775" height="43.146"/>
<g>
	<rect x="273.258" y="201.348" style="fill:#A2001D;" width="103.551" height="57.528"/>
	<rect x="273.258" y="293.393" style="fill:#A2001D;" width="103.551" height="218.607"/>
</g>
<g>
	<rect x="325.034" y="201.348" style="fill:#6C0014;" width="51.775" height="57.528"/>
	<rect x="325.034" y="293.393" style="fill:#6C0014;" width="51.775" height="218.607"/>
</g>
<rect x="135.191" y="311.802" style="fill:#FFE98F;" width="103.551" height="43.146"/>
<rect x="186.966" y="311.802" style="fill:#FFC170;" width="51.775" height="43.146"/>
<g>
	<rect x="135.191" y="258.876" style="fill:#A2001D;" width="103.551" height="57.528"/>
	<rect x="135.191" y="350.921" style="fill:#A2001D;" width="103.551" height="161.079"/>
</g>
<g>
	<rect x="186.966" y="258.876" style="fill:#6C0014;" width="51.775" height="57.528"/>
	<rect x="186.966" y="350.921" style="fill:#6C0014;" width="51.775" height="161.079"/>
</g>
</svg>