<?xml version="1.0" encoding="iso-8859-1"?>
<!-- Uploaded to: SVG Repo, www.svgrepo.com, Generator: SVG Repo Mixer Tools -->
<svg version="1.1" id="Layer_1" xmlns="http://www.w3.org/2000/svg" xmlns:xlink="http://www.w3.org/1999/xlink" 
	 viewBox="0 0 512 512" xml:space="preserve">
<path style="fill:#6D529F;" d="M30.618,395.003h153.674l-41.072-89.841l-1.025-63.852c-0.396-24.676-20.512-44.472-45.192-44.472
	H30.618V395.003z"/>
<path style="fill:#FFCEB3;" d="M175.114,92.753v42.426c0,29.489-23.991,53.48-53.479,53.48s-53.478-23.991-53.478-53.48V92.753
	H175.114z"/>
<rect x="30.629" y="438.33" style="fill:#FF738D;" width="457.418" height="61.893"/>
<path style="fill:#FFCEB3;" d="M348.26,438.333H30.634v-97.445h274.645c23.738,0,42.982,19.244,42.982,42.982V438.333z"/>
<path style="fill:#F5CDB3;" d="M439.117,406.474l-36.458,22.382c-25.34,15.557-58.613,7.598-74.17-17.741
	c-15.557-25.339-7.598-58.612,17.743-74.17l36.458-22.382L439.117,406.474z"/>
<path d="M76.066,403.597c-0.777,0-1.543-0.082-2.308-0.236c-0.754-0.141-1.496-0.377-2.202-0.671
	c-0.707-0.294-1.39-0.648-2.037-1.083c-0.636-0.424-1.248-0.919-1.79-1.46c-0.542-0.542-1.024-1.142-1.46-1.79
	c-0.424-0.636-0.789-1.319-1.083-2.025c-0.294-0.718-0.518-1.46-0.671-2.214s-0.224-1.531-0.224-2.296
	c0-0.765,0.071-1.543,0.224-2.296c0.153-0.754,0.377-1.495,0.671-2.202c0.294-0.718,0.659-1.401,1.083-2.037
	c0.436-0.648,0.919-1.248,1.46-1.79c0.542-0.542,1.154-1.036,1.79-1.46c0.648-0.424,1.331-0.789,2.037-1.083
	c0.707-0.294,1.448-0.518,2.202-0.671c3.827-0.777,7.902,0.483,10.634,3.215c0.542,0.542,1.036,1.142,1.46,1.79
	c0.424,0.636,0.789,1.319,1.083,2.037c0.294,0.707,0.518,1.448,0.671,2.202c0.153,0.754,0.236,1.531,0.236,2.296
	c0,0.765-0.082,1.543-0.236,2.296c-0.153,0.754-0.377,1.496-0.671,2.214c-0.294,0.707-0.659,1.39-1.083,2.025
	c-0.424,0.648-0.919,1.248-1.46,1.79C82.201,402.338,79.163,403.597,76.066,403.597z"/>
<path style="fill:#FFCEB3;" d="M388.931,491.642l-96.753-18.229c-12.146-2.976-21.314-9.968-25.664-19.571l-32.954-72.765
	c-4.184-9.239,2.688-21.378,15.351-27.113l0,0c12.663-5.735,26.319-2.893,30.503,6.345l33.446,73.847l84.058,19.927
	c8.66,2.053,14.774,9.787,14.774,18.686l0,0C411.69,484.801,400.754,493.869,388.931,491.642z"/>
<path style="fill:#A67CAB;" d="M357.894,355.942c9.114-5.596,36.458-22.382,36.458-22.382l44.657,72.739
	c37.247-26.331,54.017-68.08,29.819-107.496c-26.823-43.689-73.274-44.446-114.324-19.244l-94.843,61.331l60.874,81.358
	C325.373,393.235,318.27,380.268,357.894,355.942z"/>
<path style="fill:#FFA6B7;" d="M265.704,362.901c-3.736,12.375-16.889,19.286-29.199,15.343l-66.822-21.401
	c-13.669-4.678-25.062-14.357-31.889-27.09l-51.73-96.481c-6.569-12.25-1.962-27.506,10.288-34.074l0,0
	c12.25-6.569,27.506-1.962,34.074,10.288l52.5,97.917l69.13,27.297C263.247,339.12,269.182,351.382,265.704,362.901L265.704,362.901
	z"/>
<path d="M265.347,348.49c0.479,1.351,0.833,2.747,1.055,4.175h2.068L265.347,348.49z"/>
<path style="fill:#FF9732;" d="M102.284,135.18c0-10.606,0-42.426,0-42.426h73.769c-2.927-45.142-30.655-80.978-76.524-80.978
	c-50.842,0-75.584,38.865-75.584,86.637v134.322h107.298C120.942,222.98,102.284,201.051,102.284,135.18z"/>
<path d="M488.054,426.556h-59.141l16.366-10.047c0.894-0.549,1.692-1.218,2.4-1.968c20.172-14.762,34.174-33.238,40.524-53.576
	c7.19-23.036,3.961-46.661-9.338-68.325c-27.967-45.552-79.2-54.625-130.521-23.118c-0.079,0.048-0.157,0.098-0.233,0.147
	l-87.099,56.322c-1.467-0.851-3.011-1.605-4.629-2.244l-65.116-25.712l-50.46-94.113c-1.028-1.918-2.216-3.715-3.532-5.393
	c28.453-7.025,49.617-32.755,49.617-63.348V97.324c0.703-1.669,1.034-3.488,0.915-5.332C184.237,36.969,148.762,0,99.53,0
	C46.461,0,12.17,38.629,12.17,98.412v134.322c0,4.673,2.728,8.698,6.672,10.601l0.015,256.89c0,6.504,5.272,11.776,11.776,11.776
	h457.42c6.503,0,11.776-5.272,11.776-11.776v-61.892C499.83,431.828,494.558,426.556,488.054,426.556z M335.352,398.637
	c2.065-11.531,7.128-19.415,28.702-32.66l26.422-16.222l5.138,8.368L422.92,402.6l-26.422,16.221
	c-19.803,12.16-45.814,5.939-57.971-13.867C337.27,402.908,336.221,400.793,335.352,398.637z M360.779,289.521
	c15.255-9.337,66.807-35.387,98.012,15.44c20.211,32.919,5.983,63.507-16.7,83.851l-37.705-61.415
	c-1.634-2.661-4.258-4.564-7.296-5.292c-3.037-0.725-6.239-0.218-8.901,1.418l-36.457,22.382c0,0,0,0-0.001,0
	c-27.685,16.997-35.743,30.119-39.07,46.163l-36.021-48.141L360.779,289.521z M259.797,387.116
	c4.825-2.535,8.892-6.076,11.997-10.353l5.427,7.254l24.908,54.999c1.504,3.322,4.463,5.76,8.011,6.6l84.059,19.926
	c3.364,0.797,5.715,3.769,5.715,7.228c0,3.037-1.684,4.886-2.686,5.717c-1.004,0.833-3.131,2.146-6.116,1.581l-96.421-18.167
	c-8.451-2.138-14.642-6.719-17.449-12.919l-26.538-58.597C253.829,389.727,256.887,388.645,259.797,387.116z M42.394,329.112V244.51
	h36.333l45.36,84.602H42.394z M42.409,352.663h98.213c7.138,6.806,15.709,12.056,25.246,15.32c0.074,0.025,0.147,0.049,0.221,0.074
	l37.435,11.99h-90.831c-6.504,0-11.776,5.272-11.776,11.776c0,6.504,5.272,11.776,11.776,11.776h118.032l10.503,22.958H42.409
	V352.663z M172.547,312.966c1.317,2.455,3.461,4.365,6.053,5.389l69.131,27.297c5.451,2.153,8.394,8.234,6.7,13.844c0,0,0,0,0,0.001
	c-0.887,2.938-2.871,5.343-5.589,6.77c-2.718,1.427-5.824,1.697-8.746,0.762l-66.705-21.365
	c-10.844-3.74-19.799-11.364-25.22-21.477l-42.72-79.678h25.795c1.459,0,2.872-0.273,4.185-0.773L172.547,312.966z M163.338,135.179
	c0,22.996-18.708,41.704-41.704,41.704c-1.464,0-2.91-0.079-4.335-0.227c-1.978-11.108-3.241-24.73-3.241-41.477v-30.65h49.279
	V135.179z M35.722,98.412c0-17.561,4.602-74.861,63.808-74.861c38.784,0,57.599,28.679,63.161,57.426h-60.407
	c-6.504,0-11.776,5.272-11.776,11.776v42.426c0,43.244,7.668,69.216,16.864,85.779h-71.65V98.412z M42.409,450.108h209.486
	l3.891,8.592c5.887,12.999,17.816,22.286,33.588,26.15c0.206,0.049,0.414,0.095,0.622,0.134l18.381,3.463H42.409V450.108z
	 M476.278,488.448h-57.074c2.758-4.694,4.262-10.081,4.262-15.678c0-8.88-3.731-16.97-9.866-22.662h62.677v38.341H476.278z"/>
</svg>