<?xml version="1.0" encoding="iso-8859-1"?>
<!-- Uploaded to: SVG Repo, www.svgrepo.com, Generator: SVG Repo Mixer Tools -->
<svg version="1.1" id="Layer_1" xmlns="http://www.w3.org/2000/svg" xmlns:xlink="http://www.w3.org/1999/xlink" 
	 viewBox="0 0 512 512" xml:space="preserve">
<path style="fill:#415E72;" d="M0,341.508V62.236c0.088-4.92,4.048-8.88,8.968-8.968h423.4c4.92,0.088,8.88,4.048,8.968,8.968
	v279.28L0,341.508z"/>
<g>
	<path style="fill:#CFDCE5;" d="M441.328,341.508v35.856c-0.088,4.92-4.048,8.88-8.968,8.968H8.968
		c-4.912-0.088-8.88-4.048-8.968-8.96v-35.864L441.328,341.508L441.328,341.508z"/>
	<rect x="126.192" y="449.764" style="fill:#CFDCE5;" width="188.944" height="8.968"/>
</g>
<polygon style="fill:#AAC1CE;" points="283.416,449.772 157.912,449.772 166.88,386.332 274.456,386.332 "/>
<rect x="17.928" y="71.196" style="fill:#FFFFFF;" width="405.472" height="252.384"/>
<polygon style="fill:#8BA0AE;" points="274.456,386.332 166.88,386.332 161.872,421.74 276.064,397.732 "/>
<rect x="44.272" y="161.364" style="fill:#32BEA6;" width="219.2" height="76.336"/>
<polygon style="fill:#88D8C9;" points="44.272,209.66 44.272,161.348 92.584,161.348 "/>
<g>
	<path style="fill:#FFFFFF;" d="M104.136,209.3c2.024,1.216,4.344,1.872,6.704,1.888c3.832,0,6.064-2.024,6.064-4.944
		c0-2.704-1.544-4.248-5.464-5.752c-4.728-1.68-7.648-4.128-7.648-8.208c0.232-4.6,4.144-8.144,8.752-7.92
		c0.208,0.008,0.416,0.032,0.616,0.056c2.216-0.08,4.424,0.416,6.4,1.424l-1.032,3.048c-1.688-0.912-3.576-1.384-5.496-1.376
		c-3.952,0-5.456,2.4-5.456,4.344c0,2.704,1.768,4,5.76,5.6c4.896,1.888,7.392,4.256,7.392,8.504c0,4.472-3.304,8.336-10.144,8.336
		c-2.584,0.032-5.128-0.608-7.392-1.848L104.136,209.3z"/>
	<path style="fill:#FFFFFF;" d="M128,204.148c-0.304,3.664,2.416,6.888,6.088,7.192c0.352,0.032,0.704,0.032,1.048,0.008
		c1.976,0.056,3.936-0.304,5.76-1.072l0.64,2.704c-2.184,0.912-4.544,1.352-6.912,1.288c-5.32,0.336-9.912-3.712-10.24-9.032
		c-0.032-0.488-0.024-0.976,0.016-1.456c-0.608-5.544,3.384-10.528,8.928-11.144c0.272-0.032,0.552-0.048,0.824-0.056
		c4.856,0.064,8.744,4.056,8.68,8.912c-0.008,0.304-0.024,0.608-0.056,0.912c-0.008,0.592-0.048,1.176-0.128,1.76L128,204.148z
		 M139.088,201.436c0.424-2.944-1.624-5.672-4.568-6.088c-0.224-0.032-0.448-0.048-0.672-0.056c-3.232,0.232-5.752,2.904-5.8,6.144
		H139.088z"/>
	<path style="fill:#FFFFFF;" d="M158.944,213.86l-0.296-2.624h-0.128c-1.496,2-3.864,3.152-6.36,3.096
		c-3.264,0.24-6.104-2.2-6.344-5.464c-0.016-0.168-0.016-0.336-0.016-0.504c0-5.032,4.472-7.784,12.504-7.736v-0.432
		c0.296-2.352-1.368-4.496-3.712-4.792c-0.336-0.04-0.672-0.048-1.016-0.008c-1.912,0.008-3.784,0.544-5.416,1.544l-0.856-2.496
		c2.064-1.24,4.424-1.872,6.832-1.84c6.36,0,7.904,4.336,7.904,8.504v7.784c-0.024,1.664,0.088,3.336,0.344,4.984L158.944,213.86z
		 M158.4,203.252c-4.128-0.096-8.8,0.64-8.8,4.68c-0.152,1.84,1.224,3.456,3.064,3.608c0.168,0.016,0.336,0.016,0.496,0
		c2.256,0.056,4.288-1.352,5.032-3.48c0.128-0.384,0.2-0.792,0.208-1.2L158.4,203.252z"/>
	<path style="fill:#FFFFFF;" d="M168.12,199.548c0-2.448,0-4.544-0.168-6.488h3.312l0.128,4.08h0.168
		c0.736-2.6,3.064-4.44,5.768-4.544c0.36-0.008,0.72,0.04,1.072,0.128v3.56c-0.424-0.088-0.856-0.128-1.288-0.128
		c-2.672,0.104-4.848,2.192-5.072,4.856c-0.104,0.584-0.16,1.168-0.168,1.76v11.088h-3.744L168.12,199.548z"/>
	<path style="fill:#FFFFFF;" d="M196.544,213.084c-1.88,0.832-3.92,1.248-5.976,1.2c-5.456,0.272-10.096-3.928-10.368-9.384
		c-0.024-0.408-0.016-0.824,0.016-1.232c-0.272-5.832,4.232-10.776,10.064-11.048c0.376-0.016,0.76-0.016,1.136,0.008
		c1.8-0.024,3.592,0.344,5.24,1.072l-0.856,2.92c-1.352-0.704-2.864-1.04-4.384-0.984c-4.32,0.272-7.608,3.992-7.336,8.312
		c0.24,3.896,3.312,7.016,7.2,7.328c1.608,0.008,3.192-0.344,4.64-1.032L196.544,213.084z"/>
	<path style="fill:#FFFFFF;" d="M200.944,183.348h3.784v12.976h0.072c0.64-1.12,1.576-2.04,2.704-2.664
		c1.168-0.688,2.504-1.056,3.864-1.072c2.792,0,7.256,1.72,7.256,8.888v12.376h-3.784v-11.936c0-3.352-1.24-6.184-4.8-6.184
		c-2.328,0.048-4.36,1.568-5.064,3.784c-0.208,0.576-0.304,1.192-0.264,1.808v12.544h-3.784L200.944,183.348z"/>
</g>
<path style="fill:#25B6D2;" d="M496.968,327.876L496.968,327.876l-39.512-39.472l-8.656-8.672
	c-9.848-9.84-25.816-9.832-35.656,0.016s-9.832,25.816,0.024,35.656l0,0l14.968,14.952l0.056,0.072l15.2,15.152l33.016,32.992
	L512,342.9L496.968,327.876z"/>
<ellipse style="fill:#415E72;" cx="346.4" cy="213.068" rx="121.784" ry="121.704"/>
<ellipse style="fill:#FFFFFF;" cx="346.4" cy="213.068" rx="112.48" ry="112.4"/>
<path style="fill:#E04F5F;" d="M346.4,314.116c-55.808-0.04-101.016-45.312-100.976-101.12s45.312-101.016,101.12-100.976
	c55.776,0.04,100.976,45.272,100.976,101.048C447.44,268.868,402.2,314.076,346.4,314.116z M346.4,116.012
	c-53.6,0.04-97.016,43.52-96.976,97.12s43.52,97.016,97.12,96.976c53.568-0.04,96.968-43.472,96.976-97.04
	C443.448,159.468,400,116.052,346.4,116.012L346.4,116.012z"/>
</svg>