<?xml version="1.0" encoding="iso-8859-1"?>
<!-- Uploaded to: SVG Repo, www.svgrepo.com, Generator: SVG Repo Mixer Tools -->
<svg height="800px" width="800px" version="1.1" id="Layer_1" xmlns="http://www.w3.org/2000/svg" xmlns:xlink="http://www.w3.org/1999/xlink" 
	 viewBox="0 0 512.001 512.001" xml:space="preserve">
<circle style="fill:#F47D20;" cx="256.001" cy="256.001" r="256.001"/>
<path style="fill:#FF8C24;" d="M24.386,279.684C25.331,138.302,140.708,24.455,282.09,25.4
	c65.615,0.438,125.289,25.536,170.32,66.429c-46.586-55.681-116.415-91.3-194.7-91.823C116.329-0.939,0.95,112.908,0.006,254.29
	C-0.5,330.056,31.971,398.343,83.969,445.564C46.42,400.686,23.965,342.781,24.386,279.684z"/>
<circle style="fill:#F5BA3D;" cx="256.001" cy="256.001" r="204.306"/>
<path style="fill:#FFC33E;" d="M380.965,94.366c30.365,35.925,48.549,82.45,48.21,133.176
	c-0.754,112.836-92.836,203.696-205.672,202.941c-46.582-0.312-89.409-16.198-123.6-42.673
	c37.179,43.987,92.623,72.08,154.732,72.495c112.836,0.754,204.918-90.107,205.672-202.941
	C460.75,191.111,429.596,132.023,380.965,94.366z"/>
<g>
	<circle style="fill:#B07E09;" cx="205.504" cy="206.456" r="23.978"/>
	<circle style="fill:#B07E09;" cx="307.154" cy="207.139" r="23.978"/>
	<circle style="fill:#B07E09;" cx="204.847" cy="304.863" r="23.978"/>
	<circle style="fill:#B07E09;" cx="306.498" cy="305.545" r="23.978"/>
</g>
</svg>